#N canvas 83 536 450 300 10;
#X obj 214 8 loadbang;
#X msg 214 52 \; pd dsp 1;
#X msg 305 86 quit;
#X obj 307 125 s pd;
#X obj 32 192 writesf~ 2;
#X msg 122 108 open rec.wav;
#X msg 128 162 start;
#X msg 202 164 stop;
#X obj 142 131 pipe 10;
#X obj 206 136 pipe 10000;
#X obj 48 73 synth;
#X obj 305 57 pipe 10010;
#X connect 0 0 1 0;
#X connect 0 0 5 0;
#X connect 0 0 8 0;
#X connect 0 0 9 0;
#X connect 0 0 11 0;
#X connect 2 0 3 0;
#X connect 5 0 4 0;
#X connect 6 0 4 0;
#X connect 7 0 4 0;
#X connect 8 0 6 0;
#X connect 9 0 7 0;
#X connect 10 0 4 0;
#X connect 10 1 4 1;
#X connect 11 0 2 0;
